<?xml version="1.0" standalone="no"?><!DOCTYPE svg PUBLIC "-//W3C//DTD SVG 1.1//EN" "http://www.w3.org/Graphics/SVG/1.1/DTD/svg11.dtd"><svg t="1528439426540" class="icon" style="" viewBox="0 0 1024 1024" version="1.1" xmlns="http://www.w3.org/2000/svg" p-id="1528" xmlns:xlink="http://www.w3.org/1999/xlink" width="200" height="200"><defs><style type="text/css"></style></defs><path d="M599.504521 117.369545l210.548419 121.593312a91.472302 91.472302 0 0 1 145.442668 17.065728 91.557631 91.557631 0 0 1-57.76749 134.435273v243.14396a90.960331 90.960331 0 0 1 57.511504 134.392609 91.429638 91.429638 0 0 1-147.319898 15.060505l-209.26849 120.825354a91.301645 91.301645 0 1 1-177.952879 28.926409c0-8.746186 1.237265-17.492371 3.75446-25.982571l-210.591084-121.465319a91.301645 91.301645 0 1 1-87.547185-151.842315l0.042664-243.143961A91.344309 91.344309 0 0 1 68.461728 255.985921a91.429638 91.429638 0 0 1 145.357339-17.27905l210.676412-121.593312A91.216316 91.216316 0 0 1 512 0a91.173652 91.173652 0 0 1 87.504521 117.369545z m-21.972125 37.416608a33.832806 33.832806 0 0 1-2.474531 2.474531l275.654173 477.413742c1.109272-0.383979 2.389202-0.682629 3.498474-0.981279V390.207872a91.088323 91.088323 0 0 1-66.471011-110.415261l0.810622-3.071831-211.017727-121.934627z m-128.632925 2.517195l-2.55986-2.559859-211.017727 121.678641a91.130988 91.130988 0 0 1-62.332572 112.847127l-3.242488 0.895951v243.527939l3.583803 0.981279 275.654172-477.413742-0.085328 0.042664z m88.571128 21.630811c-16.639085 4.778404-34.259449 4.778404-50.855869 0l-275.611509 477.371078c12.54331 12.074003 21.417489 27.518486 25.598593 44.413557h550.839037c4.138439-16.980399 13.097946-32.467548 25.726585-44.54155L537.470599 178.934159z m42.06702 692.313922l209.609805-121.08134a74.577232 74.577232 0 0 1-1.621245-6.058334H236.473821l-0.895951 3.541139 210.719077 121.678641a90.704345 90.704345 0 0 1 65.703053-27.859801c26.750529 0 50.770541 11.476702 67.537619 29.779695z" fill="" p-id="1529"></path></svg>