<?xml version="1.0" standalone="no"?><!DOCTYPE svg PUBLIC "-//W3C//DTD SVG 1.1//EN" "http://www.w3.org/Graphics/SVG/1.1/DTD/svg11.dtd"><svg t="1538908082280" class="icon" style="" viewBox="0 0 1024 1024" version="1.1" xmlns="http://www.w3.org/2000/svg" p-id="4131" xmlns:xlink="http://www.w3.org/1999/xlink" width="200" height="200"><defs><style type="text/css"></style></defs><path d="M686.592 219.264c-25.856 18.24-51.072 33.792-78.784 56.32-20.928 17.088-58.816 40.512-60.8 72.064-3.2 48 70.72 92.352 31.488 153.152-14.848 23.168-40.064 33.088-72.064 47.296-3.84-7.04 8.32-12.8 13.504-20.288 49.152-71.168-51.072-94.784-38.272-182.4 12.416-84.672 112.192-114.176 204.928-126.08" fill="#ffffff" p-id="4132"></path><path d="M373.568 512c-23.168 10.88-61.952 12.864-78.848 36.096 17.152 12.8 42.176 12.352 65.344 13.504 95.04 4.288 213.952-3.84 295.04-17.984 2.688 5.824-11.264 16-20.288 22.464-51.136 37.44-210.112 48-319.808 40.576-36.672-2.496-120.704-12.16-121.6-45.056-1.152-39.872 101.76-44.16 144.128-47.296 8.32-0.64 23.872-4.032 36.032-2.24M326.272 613.376c10.624 1.344-7.424 7.68-4.48 15.808 38.72 38.272 159.232 27.456 218.432 15.744 12.416-2.496 24.768-9.92 33.792-8.96 22.528 1.984 36.928 28.16 56.32 31.488-68.48 30.848-200.704 45.44-297.28 27.008-24.96-4.736-68.48-18.24-69.824-38.272-2.048-27.264 43.008-38.72 63.04-42.816M355.584 705.728c6.976 2.24-2.56 6.08-2.304 8.96 20.48 35.648 121.856 23.04 173.44 11.328 10.368-2.496 20.736-9.664 29.248-8.96 26.176 1.728 36.032 28.992 58.56 33.728-71.808 43.904-245.888 61.696-317.504 6.72-3.392-40.064 28.8-44.544 58.56-51.776" fill="#ffffff" p-id="4133"></path><path d="M290.24 773.312c-21.376 5.376-76.8-2.24-78.848 27.008-0.64 11.264 18.944 24.576 31.552 29.312 73.408 27.648 220.928 32 342.336 17.984 56.32-6.528 162.176-25.472 148.608-83.328 16.896 2.048 32 12.8 33.792 29.312 6.784 62.08-136 88.256-193.664 94.528-125.44 13.76-282.24 11.072-378.368-22.464-31.296-10.88-69.12-30.912-67.584-60.8 2.752-50.496 124.352-64.448 162.176-31.552" fill="#ffffff" p-id="4134"></path><path d="M481.664 960c-84.48-9.216-165.76-21.632-234.24-51.84 179.072 43.072 440.064 39.872 565.312-51.776 6.784-4.928 13.056-14.592 22.528-13.44-31.552 94.528-152.704 101.12-256.768 117.056H481.664M540.224 66.112c15.744 14.912 27.008 42.56 27.008 72.064 0 87.168-92.288 137.6-137.344 195.968-9.92 13.056-22.784 33.088-22.528 54.016 0.448 47.552 49.536 100.672 67.584 139.648-31.552-20.736-69.824-48.384-96.896-81.088-27.008-32.384-54.016-85.12-29.248-130.56 37.12-68.48 147.712-109.248 186.88-182.4 9.536-17.856 16.96-45.12 4.544-67.648M673.088 534.592c46.4-39.68 124.992-24.128 128.384 42.752 3.84 78.4-81.92 122.304-144.128 126.08 28.8-27.392 104.96-71.552 90.112-135.04-6.144-25.728-38.08-41.216-74.368-33.792" fill="#ffffff" p-id="4135"></path></svg>