<?xml version="1.0" standalone="no"?><!DOCTYPE svg PUBLIC "-//W3C//DTD SVG 1.1//EN" "http://www.w3.org/Graphics/SVG/1.1/DTD/svg11.dtd"><svg t="1528439139653" class="icon" style="" viewBox="0 0 1024 1024" version="1.1" xmlns="http://www.w3.org/2000/svg" p-id="1017" xmlns:xlink="http://www.w3.org/1999/xlink" width="200" height="200"><defs><style type="text/css"></style></defs><path d="M911.989715 217.145632q16.017142 16.017142 27.426612 43.443754t11.409471 50.318692l0 658.238697q0 22.818942-16.017142 38.836083t-38.836083 16.017142l-767.945147 0q-22.818942 0-38.836083-16.017142t-16.017142-38.836083l0-914.220413q0-22.818942 16.017142-38.836083t38.836083-16.017142l511.963431 0q22.818942 0 50.318692 11.409471t43.443754 27.426612zM658.275266 77.672166l0 214.805228 214.805228 0q-5.704735-16.602243-12.579673-23.404043l-178.821513-178.821513q-6.874938-6.874938-23.404043-12.579673zM877.688165 950.789229l0-585.101064-237.697307 0q-22.818942 0-38.836083-16.017142t-16.017142-38.836083l0-237.697307-438.825798 0 0 877.651596 731.37633 0zM347.440326 438.825798q4.534533-6.289836 11.994572-7.167488t13.676737 3.730019l29.108778 21.721877q6.289836 4.534533 7.167488 11.994572t-3.730019 13.676737l-104.001714 138.815227 104.001714 138.815227q4.534533 6.289836 3.730019 13.676737t-7.167488 11.994572l-29.108778 21.721877q-6.289836 4.534533-13.676737 3.730019t-11.994572-7.167488l-129.16106-172.019713q-7.972002-10.82437 0-21.721877zM805.720734 610.845511q7.972002 10.82437 0 21.721877l-129.16106 172.019713q-4.534533 6.289836-11.994572 7.167488t-13.676737-3.730019l-29.108778-21.721877q-6.289836-4.534533-7.167488-11.994572t3.730019-13.676737l104.001714-138.815227-104.001714-138.815227q-4.534533-6.289836-3.730019-13.676737t7.167488-11.994572l29.108778-21.721877q6.289836-4.534533 13.676737-3.730019t11.994572 7.167488zM451.44204 874.214128q-7.460039-1.170202-11.702021-7.460039t-3.144918-13.676737l78.842368-474.809514q1.170202-7.460039 7.460039-11.702021t13.676737-3.144918l35.983715 5.704735q7.460039 1.170202 11.702021 7.460039t3.144918 13.676737l-78.842368 474.809514q-1.170202 7.460039-7.460039 11.702021t-13.676737 3.144918z" p-id="1018"></path></svg>